<?xml version="1.0" encoding="utf-8"?>
<!-- Generator: Adobe Illustrator 15.0.0, SVG Export Plug-In . SVG Version: 6.00 Build 0)  -->
<!DOCTYPE svg PUBLIC "-//W3C//DTD SVG 1.1//EN" "http://www.w3.org/Graphics/SVG/1.1/DTD/svg11.dtd">
<svg version="1.1" id="Layer_1" xmlns:dc="http://purl.org/dc/elements/1.1/" xmlns:cc="http://creativecommons.org/ns#" xmlns:svg="http://www.w3.org/2000/svg" xmlns:rdf="http://www.w3.org/1999/02/22-rdf-syntax-ns#" xmlns:sodipodi="http://sodipodi.sourceforge.net/DTD/sodipodi-0.dtd" xmlns:inkscape="http://www.inkscape.org/namespaces/inkscape" sodipodi:docname="fun-nav.svg" inkscape:version="0.48.2 r9819"
	 xmlns="http://www.w3.org/2000/svg" xmlns:xlink="http://www.w3.org/1999/xlink" x="0px" y="0px" width="762px" height="197px"
	 viewBox="0 0 762 197" enable-background="new 0 0 762 197" xml:space="preserve">
<g id="flask">
	<g id="flask-body">
		<path id="path3514" fill="#E6E7E8" d="M374.021,22.415c1.771,0,3.206,1.436,3.206,3.206
			c0,1.771-1.436,3.207-3.206,3.207h-0.257v76.812c18.368,6.493,31.529,24.008,31.529,44.601c0,18.657-10.804,34.788-26.496,42.483
			h-41.596c-15.692-7.695-26.496-23.826-26.496-42.483c0-20.593,13.161-38.106,31.529-44.601V28.828h-0.257
			c-1.771,0-3.206-1.436-3.206-3.207s1.436-3.206,3.206-3.206H374.021 M374.021,18.14h-32.043c-4.125,0-7.481,3.356-7.481,7.481
			c0,2.647,1.383,4.978,3.463,6.308v70.785c-18.98,8.005-31.529,26.731-31.529,47.526c0,9.83,2.777,19.391,8.032,27.646
			c5.111,8.032,12.323,14.49,20.856,18.676L336.21,197h0.992h41.596h0.992l0.89-0.438c8.534-4.186,15.746-10.644,20.857-18.676
			c5.255-8.257,8.032-17.816,8.032-27.646c0-20.795-12.55-39.521-31.529-47.526V31.93c2.081-1.33,3.463-3.661,3.463-6.309
			C381.503,21.496,378.146,18.14,374.021,18.14L374.021,18.14L374.021,18.14z"/>
		<path id="path3516" fill="#F48237" d="M387.387,117.909h-58.774
			c-8.704,7.963-14.166,19.413-14.166,32.141c0,17.183,9.95,32.037,24.401,39.125h38.305c14.451-7.088,24.401-21.942,24.401-39.125
			C401.554,137.322,396.092,125.872,387.387,117.909L387.387,117.909z"/>
		<path id="path3518" fill="#FFFFFF" d="M343.215,145.965c-3.855,0-7.258-2.73-8.088-6.49
			c-0.191-0.865,0.354-1.722,1.219-1.912c0.864-0.19,1.721,0.354,1.911,1.22c0.51,2.305,2.595,3.978,4.958,3.978
			c2.629,0,4.852-2.049,5.061-4.664c0.071-0.883,0.844-1.547,1.727-1.471c0.883,0.07,1.541,0.844,1.47,1.727
			C351.13,142.62,347.503,145.965,343.215,145.965L343.215,145.965z"/>
		<path id="path3520" fill="#FFFFFF" d="M372.115,145.965c-4.288,0-7.914-3.345-8.256-7.615
			c-0.071-0.884,0.587-1.656,1.47-1.727c0.883-0.077,1.655,0.587,1.726,1.47c0.21,2.616,2.433,4.666,5.061,4.666
			c2.396,0,4.487-1.7,4.972-4.041c0.18-0.866,1.027-1.428,1.895-1.245c0.867,0.18,1.425,1.027,1.245,1.896
			C379.436,143.189,376.024,145.965,372.115,145.965L372.115,145.965z"/>
		<path id="path3522" fill="#FFFFFF" d="M358.222,176.393c-11.438,0-21.11-8.176-23.001-19.438
			c-0.146-0.874,0.442-1.7,1.315-1.847c0.876-0.147,1.7,0.441,1.847,1.314c1.63,9.713,9.974,16.762,19.839,16.762
			c9.848,0,18.188-7.033,19.833-16.725c0.148-0.873,0.977-1.457,1.849-1.312c0.873,0.148,1.461,0.978,1.312,1.851
			C379.309,168.234,369.639,176.393,358.222,176.393z"/>
	</g>
	<g class="wrapper">
		<g id="bubble-01">
				<circle id="circle3526" sodipodi:cx="354.76001" sodipodi:cy="71.458" sodipodi:rx="4.809" sodipodi:ry="4.809" fill="#F48237" cx="348.76" cy="131.458" r="4.81">
			</circle>
			<path id="path3528" fill="#E6E7E8" d="M348.761,126.648c2.655,0,4.809,2.153,4.809,4.81s-2.153,4.81-4.809,4.81
				c-2.656,0-4.81-2.152-4.81-4.81C343.951,128.802,346.104,126.648,348.761,126.648 M348.761,123.441
				c-4.42,0-8.016,3.597-8.016,8.017s3.596,8.017,8.016,8.017c4.42,0,8.016-3.597,8.016-8.017
				C356.776,127.038,353.181,123.441,348.761,123.441L348.761,123.441z"/>
		</g>
	</g>
	<g id="bubble-02">
			<circle id="circle3532" sodipodi:cx="364.112" sodipodi:cy="49.282001" sodipodi:rx="4.809" sodipodi:ry="4.809" fill="#F48237" cx="357.112" cy="131.282" r="4.809">
		</circle>
		<path id="path3534" fill="#E6E7E8" d="M357.112,126.473c2.655,0,4.809,2.153,4.809,4.81
			c0,2.655-2.153,4.81-4.809,4.81c-2.656,0-4.81-2.152-4.81-4.81S354.456,126.473,357.112,126.473 M357.112,123.268
			c-4.421,0-8.017,3.596-8.017,8.016c0,4.419,3.596,8.016,8.017,8.016c4.42,0,8.016-3.596,8.016-8.016
			C365.128,126.861,361.532,123.268,357.112,123.268L357.112,123.268z"/>
	</g>
	<g id="bubble-03" inkscape:label="#bubble03">
			<circle id="circle3538" sodipodi:cx="345.409" sodipodi:cy="7.6009998" sodipodi:rx="4.8099999" sodipodi:ry="4.8099999" fill="#F48237" cx="365.409" cy="130.601" r="4.81">
		</circle>
		<path id="path3540" fill="#E6E7E8" d="M365.409,125.792c2.656,0,4.81,2.153,4.81,4.81
			c0,2.655-2.153,4.81-4.81,4.81c-2.657,0-4.81-2.153-4.81-4.81C360.6,127.945,362.753,125.792,365.409,125.792 M365.409,122.585
			c-4.42,0-8.016,3.597-8.016,8.017s3.596,8.016,8.016,8.016s8.016-3.596,8.016-8.016S369.829,122.585,365.409,122.585
			L365.409,122.585z"/>
	</g>
</g>
</svg>
