<?xml version="1.0" encoding="utf-8"?>
<!-- Generator: Adobe Illustrator 15.0.0, SVG Export Plug-In . SVG Version: 6.00 Build 0)  -->
<!DOCTYPE svg PUBLIC "-//W3C//DTD SVG 1.1//EN" "http://www.w3.org/Graphics/SVG/1.1/DTD/svg11.dtd">
<svg version="1.1" id="Layer_1" xmlns:dc="http://purl.org/dc/elements/1.1/" xmlns:cc="http://creativecommons.org/ns#" xmlns:svg="http://www.w3.org/2000/svg" xmlns:rdf="http://www.w3.org/1999/02/22-rdf-syntax-ns#" xmlns:sodipodi="http://sodipodi.sourceforge.net/DTD/sodipodi-0.dtd" xmlns:inkscape="http://www.inkscape.org/namespaces/inkscape" sodipodi:docname="fun-nav.svg" inkscape:version="0.48.2 r9819"
    xmlns="http://www.w3.org/2000/svg" xmlns:xlink="http://www.w3.org/1999/xlink" x="0px" y="0px" width="762px" height="197px"
    viewBox="0 0 762 197" enable-background="new 0 0 762 197" xml:space="preserve">

   <g id="flask">
      <g id="flask-body">
         <path id="path3514" fill="#E6E7E8" d="M374.021,22.415c1.771,0,3.206,1.436,3.206,3.206
            c0,1.771-1.436,3.207-3.206,3.207h-0.257v76.812c18.368,6.493,31.529,24.008,31.529,44.601c0,18.657-10.804,34.788-26.496,42.483
            h-41.596c-15.692-7.695-26.496-23.826-26.496-42.483c0-20.593,13.161-38.106,31.529-44.601V28.828h-0.257
            c-1.771,0-3.206-1.436-3.206-3.207s1.436-3.206,3.206-3.206H374.021 M374.021,18.14h-32.043c-4.125,0-7.481,3.356-7.481,7.481
            c0,2.647,1.383,4.978,3.463,6.308v70.785c-18.98,8.005-31.529,26.731-31.529,47.526c0,9.83,2.777,19.391,8.032,27.646
            c5.111,8.032,12.323,14.49,20.856,18.676L336.21,197h0.992h41.596h0.992l0.89-0.438c8.534-4.186,15.746-10.644,20.857-18.676
            c5.255-8.257,8.032-17.816,8.032-27.646c0-20.795-12.55-39.521-31.529-47.526V31.93c2.081-1.33,3.463-3.661,3.463-6.309
            C381.503,21.496,378.146,18.14,374.021,18.14L374.021,18.14L374.021,18.14z"/>
         <path id="path3516" fill="#F48237" d="M387.387,117.909h-58.774
            c-8.704,7.963-14.166,19.413-14.166,32.141c0,17.183,9.95,32.037,24.401,39.125h38.305c14.451-7.088,24.401-21.942,24.401-39.125
            C401.554,137.322,396.092,125.872,387.387,117.909L387.387,117.909z"/>
         <path id="path3518" fill="#FFFFFF" d="M343.215,145.965c-3.855,0-7.258-2.73-8.088-6.49
            c-0.191-0.865,0.354-1.722,1.219-1.912c0.864-0.19,1.721,0.354,1.911,1.22c0.51,2.305,2.595,3.978,4.958,3.978
            c2.629,0,4.852-2.049,5.061-4.664c0.071-0.883,0.844-1.547,1.727-1.471c0.883,0.07,1.541,0.844,1.47,1.727
            C351.13,142.62,347.503,145.965,343.215,145.965L343.215,145.965z"/>
         <path id="path3520" fill="#FFFFFF" d="M372.115,145.965c-4.288,0-7.914-3.345-8.256-7.615
            c-0.071-0.884,0.587-1.656,1.47-1.727c0.883-0.077,1.655,0.587,1.726,1.47c0.21,2.616,2.433,4.666,5.061,4.666
            c2.396,0,4.487-1.7,4.972-4.041c0.18-0.866,1.027-1.428,1.895-1.245c0.867,0.18,1.425,1.027,1.245,1.896
            C379.436,143.189,376.024,145.965,372.115,145.965L372.115,145.965z"/>
         <path id="path3522" fill="#FFFFFF" d="M358.222,176.393c-11.438,0-21.11-8.176-23.001-19.438
            c-0.146-0.874,0.442-1.7,1.315-1.847c0.876-0.147,1.7,0.441,1.847,1.314c1.63,9.713,9.974,16.762,19.839,16.762
            c9.848,0,18.188-7.033,19.833-16.725c0.148-0.873,0.977-1.457,1.849-1.312c0.873,0.148,1.461,0.978,1.312,1.851
            C379.309,168.234,369.639,176.393,358.222,176.393z"/>
      </g>
      
         <g id="bubble-01">
               <circle id="circle3526" sodipodi:cx="354.76001" sodipodi:cy="71.458" sodipodi:rx="4.809" sodipodi:ry="4.809" fill="#F48237" cx="348.76" cy="131.458" r="4.81">
            </circle>
            <path id="path3528" fill="#E6E7E8" d="M348.761,126.648c2.655,0,4.809,2.153,4.809,4.81s-2.153,4.81-4.809,4.81
               c-2.656,0-4.81-2.152-4.81-4.81C343.951,128.802,346.104,126.648,348.761,126.648 M348.761,123.441
               c-4.42,0-8.016,3.597-8.016,8.017s3.596,8.017,8.016,8.017c4.42,0,8.016-3.597,8.016-8.017
               C356.776,127.038,353.181,123.441,348.761,123.441L348.761,123.441z"/>
         </g>
      
      
         <g id="bubble-02">
               <circle id="circle3532" sodipodi:cx="364.112" sodipodi:cy="49.282001" sodipodi:rx="4.809" sodipodi:ry="4.809" fill="#F48237" cx="357.112" cy="131.282" r="4.809">
            </circle>
            <path id="path3534" fill="#E6E7E8" d="M357.112,126.473c2.655,0,4.809,2.153,4.809,4.81
               c0,2.655-2.153,4.81-4.809,4.81c-2.656,0-4.81-2.152-4.81-4.81S354.456,126.473,357.112,126.473 M357.112,123.268
               c-4.421,0-8.017,3.596-8.017,8.016c0,4.419,3.596,8.016,8.017,8.016c4.42,0,8.016-3.596,8.016-8.016
               C365.128,126.861,361.532,123.268,357.112,123.268L357.112,123.268z"/>
         </g>
      
      
         <g id="bubble-03" inkscape:label="#bubble03">
               <circle id="circle3538" sodipodi:cx="345.409" sodipodi:cy="7.6009998" sodipodi:rx="4.8099999" sodipodi:ry="4.8099999" fill="#F48237" cx="365.409" cy="130.601" r="4.81">
            </circle>
            <path id="path3540" fill="#E6E7E8" d="M365.409,125.792c2.656,0,4.81,2.153,4.81,4.81
               c0,2.655-2.153,4.81-4.81,4.81c-2.657,0-4.81-2.153-4.81-4.81C360.6,127.945,362.753,125.792,365.409,125.792 M365.409,122.585
               c-4.42,0-8.016,3.597-8.016,8.017s3.596,8.016,8.016,8.016s8.016-3.596,8.016-8.016S369.829,122.585,365.409,122.585
               L365.409,122.585z"/>
         </g>
      
   </g>
   <!-- end flask -->
<g
   id="lamp">
	<linearGradient
   id="SVGID_1_"
   gradientUnits="userSpaceOnUse"
   x1="610.5166"
   y1="83.741203"
   x2="610.5166"
   y2="137.2849">
		<stop
   offset="0"
   style="stop-color:#FFFFFF"
   id="stop3545" />
		<stop
   offset="1"
   style="stop-color:#8EB3C4"
   id="stop3547" />
	</linearGradient>
	<polygon
   points="516.896,178.476 575.409,82.626 645.624,82.626 704.137,178.476 "
   id="polygon3549"
   style="fill:url(#SVGID_1_)" />
	<polygon
   points="634.523,41.713 634.107,38.602 622.033,41.389 622.033,44.36 "
   id="polygon3551"
   style="fill:#58595b" />
	<path
   d="m 649.124,46.359 c -0.647,0 -1.303,-0.187 -1.879,-0.579 l -11.736,-7.994 c -0.991,-0.675 -1.545,-1.83 -1.452,-3.024 0.095,-1.197 0.822,-2.25 1.907,-2.763 l 12.817,-6.047 c 1.669,-0.79 3.662,-0.074 4.449,1.597 0.79,1.669 0.073,3.661 -1.597,4.449 l -7.526,3.555 6.902,4.699 c 1.526,1.04 1.92,3.119 0.881,4.647 -0.646,0.949 -1.697,1.46 -2.766,1.46 z"
   id="path3553"
   inkscape:connector-curvature="0"
   style="fill:#231f20" />
	<path
   d="m 746.488,73.432 c -0.406,0 -0.818,-0.081 -1.214,-0.251 L 649.075,31.68 c -1.555,-0.671 -2.271,-2.475 -1.601,-4.028 0.67,-1.555 2.474,-2.271 4.028,-1.601 l 96.199,41.5 c 1.556,0.671 2.271,2.475 1.601,4.029 -0.499,1.159 -1.628,1.852 -2.814,1.852 z"
   id="path3555"
   inkscape:connector-curvature="0"
   style="fill:#231f20" />
	<polygon
   points="683.662,156.557 677.945,161.244 677.945,163.987 693.549,163.987 693.549,156.557 "
   id="polygon3557"
   style="fill:#231f20" />
	<path
   d="m 678,166.585 c -0.721,0 -1.444,-0.253 -2.023,-0.764 -1.232,-1.084 -1.392,-2.945 -0.362,-4.223 L 737.314,84.944 648.67,46.241 c -1.551,-0.677 -2.259,-2.484 -1.582,-4.035 0.678,-1.551 2.483,-2.259 4.035,-1.583 l 92.32,40.31 c 0.876,0.382 1.521,1.15 1.75,2.077 0.228,0.928 0.011,1.909 -0.589,2.654 l -20.4,25.343 32.521,-33.848 c 1.172,-1.22 3.113,-1.259 4.333,-0.086 1.222,1.172 1.26,3.113 0.087,4.334 l -80.934,84.237 c -0.601,0.625 -1.404,0.941 -2.211,0.941 z"
   id="path3559"
   inkscape:connector-curvature="0"
   style="fill:#231f20" />
	<polygon
   points="633.975,35.886 634.111,42.016 644.635,40.554 644.314,34.238 "
   id="polygon3561"
   style="fill:#231f20" />
	<path
   d="m 741.476,89.314 c -1.241,0 -2.436,-0.695 -3.013,-1.889 -0.803,-1.662 -0.107,-3.661 1.556,-4.466 l 11.789,-5.699 -8.544,-6.018 c -1.509,-1.062 -1.871,-3.148 -0.808,-4.658 1.062,-1.511 3.148,-1.872 4.658,-0.809 l 13.188,9.288 c 0.968,0.682 1.504,1.826 1.408,3.007 -0.098,1.18 -0.812,2.221 -1.878,2.737 l -16.903,8.173 c -0.468,0.228 -0.964,0.334 -1.453,0.334 z"
   id="path3563"
   inkscape:connector-curvature="0"
   style="fill:#231f20" />
	<circle
   cx="689.36902"
   cy="157.021"
   r="2.786"
   id="circle3565"
   sodipodi:cx="689.36902"
   sodipodi:cy="157.021"
   sodipodi:rx="2.786"
   sodipodi:ry="2.786"
   style="fill:#58595b" />
	<circle
   cx="741.474"
   cy="84.578003"
   r="4.4580002"
   id="circle3567"
   sodipodi:cx="741.474"
   sodipodi:cy="84.578003"
   sodipodi:rx="4.4580002"
   sodipodi:ry="4.4580002"
   style="fill:#58595b" />
	<circle
   cx="678.50201"
   cy="163.14999"
   r="1.951"
   id="circle3569"
   sodipodi:cx="678.50201"
   sodipodi:cy="163.14999"
   sodipodi:rx="1.951"
   sodipodi:ry="1.951"
   style="fill:#58595b" />
	<circle
   cx="757.91302"
   cy="78.167"
   r="1.951"
   id="circle3571"
   sodipodi:cx="757.91302"
   sodipodi:cy="78.167"
   sodipodi:rx="1.951"
   sodipodi:ry="1.951"
   style="fill:#58595b" />
	<circle
   cx="746.30298"
   cy="69.066002"
   r="1.951"
   id="circle3573"
   sodipodi:cx="746.30298"
   sodipodi:cy="69.066002"
   sodipodi:rx="1.951"
   sodipodi:ry="1.951"
   style="fill:#58595b" />
	<circle
   cx="638.19501"
   cy="35.074001"
   r="1.95"
   id="circle3575"
   sodipodi:cx="638.19501"
   sodipodi:cy="35.074001"
   sodipodi:rx="1.95"
   sodipodi:ry="1.95"
   style="fill:#58595b" />
	<circle
   cx="650.289"
   cy="28.865"
   r="1.951"
   id="circle3577"
   sodipodi:cx="650.289"
   sodipodi:cy="28.865"
   sodipodi:rx="1.951"
   sodipodi:ry="1.951"
   style="fill:#58595b" />
	<circle
   cx="647.90002"
   cy="42.549"
   r="1.2589999"
   id="circle3579"
   sodipodi:cx="647.90002"
   sodipodi:cy="42.549"
   sodipodi:rx="1.2589999"
   sodipodi:ry="1.2589999"
   style="fill:#58595b" />
	<path
   d="m 724.581,183.266 0.009,0.127 -2.021,-5.393 h -0.003 C 720.734,173 710,168.761 696,167.884 c 0,-0.972 0,-2.014 0,-3.226 -5,-1.413 -7,-1.413 -11,0 0,1.199 0,2.232 0,3.196 -15,0.837 -26.204,5.058 -27.58,10.295 l -1.843,4.787 c -0.286,0.626 -0.485,1.267 -0.485,1.921 0,6.706 15.613,12.143 34.898,12.143 19.287,0 34.911,-5.437 34.911,-12.143 0,-0.54 -0.124,-1.07 -0.32,-1.591 z"
   id="path3581"
   inkscape:connector-curvature="0"
   style="fill:#231f20" />
	<path
   d="m 613.178,12.764 c -0.378,-0.047 -0.711,-0.083 -1.026,-0.109 0,-1.205 0,-1.876 0,-3.141 -0.86,-0.137 -1.303,-0.137 -2.164,0 0,1.262 0,1.933 0,3.133 -0.338,0.026 -0.697,0.065 -1.109,0.118 -0.222,1.59 -0.332,2.375 -0.556,3.907 2.165,0 3.247,0 5.411,0 -0.222,-1.532 -0.334,-2.318 -0.556,-3.908 z"
   id="path3583"
   inkscape:connector-curvature="0"
   style="fill:#e6e7e8" />
	<path
   d="M 647.761,80.494 625.933,44.77 c -0.743,-1.096 -1.898,-2.114 -3.216,-2.922 L 620.279,16.175 H 602.68 l -2.432,25.601 c -1.338,0.806 -2.511,1.826 -3.269,2.929 l -22.644,35.844 c -1.669,2.573 -0.573,5.164 2.436,5.755 h 68.466 c 3.011,-0.591 4.146,-3.208 2.524,-5.81 z"
   id="path3585"
   inkscape:connector-curvature="0"
   style="fill:#231f20" />
</g>
<g id="folio">
   <path id="back"
     d="M 140.618,54 H 119 v -1 h -5 v 1 H 94.305 L 94.678,37.42 C 94.678,35.652 93.233,34 91.466,34 H 63.269 c -1.767,0 -3.213,1.653 -3.213,3.42 L 60.428,54 H 40 v -1 h -4 v 1 H 14.382 C 6.472,54 0,60.012 0,67.923 V 173 l 2,3 H 157 L 155,67.996 C 155,60.085 148.528,54 140.618,54 z M 66.284,41.162 C 66.284,40.03 67.209,39 68.341,39 h 18.053 c 1.132,0 2.057,1.03 2.057,2.162 L 88.902,54 h -23.07 l 0.452,-12.838 z"
     style="fill:#231f20" /><g
     id="front">
	<path
   id="path3588"
   d="M 93.465,36.957 H 65.269 c -1.767,0 -3.213,1.445 -3.213,3.212 l 0.533,23.438 h 33.556 l 0.533,-23.438 c 0,-1.767 -1.446,-3.212 -3.213,-3.212 z M 90.982,58.813 H 67.751 l 0.533,-15.006 c 0,-1.131 0.925,-2.057 2.057,-2.057 h 18.053 c 1.132,0 2.057,0.926 2.057,2.057 l 0.531,15.006 z"
   inkscape:connector-curvature="0"
   style="fill:#231f20" />
	<path
   id="path3590"
   d="M 157,175.854 V 70.923 c 0,-7.911 -6.472,-14.382 -14.382,-14.382 H 16.382 C 8.472,56.541 2,63.012 2,70.923 v 104.931 h 155 z"
   inkscape:connector-curvature="0"
   style="fill:#58595b" />
	<rect
   id="rect3592"
   height="120.245"
   width="4.7940001"
   y="55.608002"
   x="37.687"
   style="fill:#231f20" />
	<rect
   id="rect3594"
   height="120.245"
   width="4.7930002"
   y="55.608002"
   x="115.72"
   style="fill:#231f20" />
	<rect
   id="rect3596"
   height="10.386"
   width="7.191"
   y="143.09599"
   x="36.488998"
   style="fill:#231f20" />
	<rect
   id="rect3598"
   height="10.386"
   width="7.191"
   y="143.09599"
   x="114.655"
   style="fill:#231f20" />
</g></g>
</svg>
